<?xml version="1.0" standalone="no"?>
<!DOCTYPE svg PUBLIC "-//W3C//DTD SVG 20010904//EN"
 "http://www.w3.org/TR/2001/REC-SVG-20010904/DTD/svg10.dtd">
<svg version="1.0" xmlns="http://www.w3.org/2000/svg"
 width="328.000000pt" height="328.000000pt" viewBox="0 0 328.000000 328.000000"
 preserveAspectRatio="xMidYMid meet">
<metadata>
Created by potrace 1.14, written by Peter Selinger 2001-2017
</metadata>
<g transform="translate(0.000000,328.000000) scale(0.100000,-0.100000)"
fill="#000000" stroke="none">
<path d="M0 1640 l0 -1640 1640 0 1640 0 0 1640 0 1640 -1640 0 -1640 0 0
-1640z m1955 1432 c473 -106 869 -428 1061 -863 89 -202 125 -378 126 -614 0
-228 -34 -401 -116 -593 -116 -271 -330 -523 -582 -684 -135 -86 -335 -166
-514 -205 -120 -26 -468 -26 -588 0 -539 116 -965 494 -1137 1008 -58 174 -78
323 -72 519 6 183 27 301 78 447 184 524 630 902 1179 999 115 20 449 12 565
-14z"/>
<path d="M1465 2993 c-194 -24 -426 -111 -600 -225 -315 -205 -544 -554 -611
-928 -25 -141 -23 -385 5 -516 62 -296 195 -540 407 -744 238 -230 535 -365
854 -390 576 -43 1085 232 1367 740 134 241 193 588 149 875 -20 124 -77 308
-129 412 -209 415 -617 709 -1072 773 -66 9 -305 11 -370 3z m-705 -1301 c0
-127 -3 -162 -16 -180 -28 -41 -66 -52 -174 -52 -136 0 -169 16 -194 93 -4 13
1 17 23 17 20 0 30 -6 34 -20 7 -29 51 -41 137 -39 78 2 119 12 132 32 4 7 8
78 8 160 l0 147 25 0 25 0 0 -158z m450 133 l0 -25 -165 0 -165 0 0 -55 c0
-37 4 -55 13 -56 6 -1 63 -1 124 0 62 0 120 -2 128 -5 8 -4 15 -17 15 -30 l0
-24 -140 0 -140 0 0 -55 0 -55 165 0 165 0 0 -30 0 -30 -195 0 -195 0 0 195 0
195 195 0 195 0 0 -25z m442 0 l5 -25 -168 0 -169 0 0 -58 0 -58 98 3 c53 2
116 1 140 -3 36 -4 42 -8 42 -30 l0 -24 -140 0 -140 0 0 -85 0 -85 -30 0 -30
0 0 195 0 195 194 0 194 0 4 -25z m408 0 c0 -25 -1 -25 -85 -25 l-85 0 0 -171
0 -170 -27 3 -28 3 -2 145 c-2 80 -3 155 -3 168 0 21 -4 22 -80 22 -79 0 -80
0 -80 25 l0 25 195 0 195 0 0 -25z m420 0 l0 -25 -167 -2 -168 -3 -3 -49 c-2
-29 1 -52 8 -56 6 -4 61 -5 121 -2 135 5 159 0 159 -33 l0 -25 -139 0 c-154 0
-151 2 -151 -71 l0 -39 170 0 170 0 0 -30 0 -30 -195 0 -195 0 0 195 0 195
195 0 195 0 0 -25z m100 -55 c0 -78 1 -80 24 -80 13 0 32 -3 40 -6 11 -4 43
20 104 80 81 78 92 86 127 86 l40 0 -93 -93 c-50 -51 -92 -96 -92 -100 0 -4
41 -49 90 -99 50 -51 90 -93 90 -95 0 -2 -16 -3 -36 -3 -31 0 -45 10 -120 85
-81 81 -86 85 -129 85 l-45 0 0 -85 c0 -84 0 -85 -25 -85 l-25 0 0 195 0 195
25 0 c25 0 25 -1 25 -80z"/>
</g>
</svg>
